<svg width="80" height="80" viewBox="0 0 80 80" fill="none" xmlns="http://www.w3.org/2000/svg">
<g clip-path="url(#clip0_70_10239)">
<path d="M40 80C62.0915 80 80 62.0915 80 40C80 17.9086 62.0915 0 40 0C17.9086 0 0 17.9086 0 40C0 62.0915 17.9086 80 40 80Z" fill="#3E73C4"/>
<path d="M50.0549 45.31C50.0549 40 46.8549 38.18 40.4549 37.42C35.8849 36.8125 34.9724 35.6 34.9724 33.475C34.9724 31.35 36.4974 29.985 39.5424 29.985C42.2849 29.985 43.8099 30.895 44.5699 33.1725C44.6489 33.3927 44.7937 33.5835 44.9847 33.7187C45.1754 33.8542 45.4032 33.928 45.6374 33.93H48.0749C48.2157 33.9337 48.3557 33.909 48.4867 33.857C48.6174 33.805 48.7364 33.7267 48.8362 33.6275C48.9359 33.5282 49.0147 33.4095 49.0672 33.279C49.1199 33.1482 49.1454 33.0082 49.1424 32.8675V32.7175C48.8444 31.0697 48.0107 29.5665 46.7707 28.4412C45.5307 27.316 43.9537 26.632 42.2849 26.495V22.855C42.2849 22.2475 41.8274 21.7925 41.0674 21.64H38.7799C38.1724 21.64 37.7149 22.095 37.5624 22.855V26.345C32.9899 26.95 30.0974 29.985 30.0974 33.78C30.0974 38.785 33.1424 40.7575 39.5424 41.5175C43.8099 42.275 45.1799 43.1875 45.1799 45.615C45.1799 48.04 43.0474 49.71 40.1524 49.71C36.1899 49.71 34.8199 48.0425 34.3624 45.765C34.2124 45.16 33.7524 44.855 33.2949 44.855H30.7049C30.5642 44.8515 30.4244 44.8767 30.2939 44.929C30.1632 44.981 30.0447 45.0592 29.9449 45.1585C29.8454 45.2577 29.7672 45.3762 29.7147 45.5067C29.6622 45.6372 29.6367 45.777 29.6399 45.9175V46.0675C30.2474 49.8625 32.6874 52.5925 37.7149 53.3525V56.995C37.7149 57.6 38.1724 58.0575 38.9324 58.2075H41.2199C41.8274 58.2075 42.2849 57.7525 42.4374 56.995V53.35C47.0099 52.5925 50.0549 49.4075 50.0549 45.31Z" fill="white"/>
<path d="M32.2301 61.2425C20.3452 56.9925 14.2502 43.7925 18.6702 32.11C20.9552 25.735 25.9826 20.8825 32.2301 18.605C32.8401 18.3025 33.1426 17.8475 33.1426 17.0875V14.9625C33.1426 14.3575 32.8401 13.9025 32.2301 13.75C32.0776 13.75 31.7726 13.75 31.6201 13.9C28.1914 14.9708 25.0081 16.7093 22.2538 19.0154C19.4995 21.3216 17.2286 24.1497 15.5718 27.337C13.9151 30.5245 12.9051 34.008 12.6002 37.5872C12.2953 41.1665 12.7015 44.7708 13.7952 48.1925C16.5352 56.6925 23.0877 63.2175 31.6201 65.9475C32.2301 66.25 32.8401 65.9475 32.9901 65.34C33.1426 65.19 33.1426 65.035 33.1426 64.7325V62.6075C33.1426 62.1525 32.6876 61.5475 32.2301 61.2425ZM48.3801 13.9025C47.7701 13.5975 47.1601 13.9025 47.0101 14.5075C46.8576 14.66 46.8576 14.8125 46.8576 15.115V17.24C46.8576 17.8475 47.3126 18.4525 47.7701 18.7575C59.6551 23.0075 65.7501 36.2075 61.3301 47.89C59.0451 54.265 54.0176 59.1175 47.7701 61.395C47.1601 61.6975 46.8576 62.1525 46.8576 62.9125V65.0375C46.8576 65.6425 47.1601 66.0975 47.7701 66.25C47.9226 66.25 48.2276 66.25 48.3801 66.1C51.8091 65.0293 54.9924 63.2908 57.7466 60.9845C60.5009 58.6785 62.7719 55.8503 64.4286 52.663C66.0854 49.4755 67.0954 45.992 67.4001 42.4127C67.7051 38.8335 67.2989 35.2292 66.2051 31.8075C63.4651 23.1575 56.7601 16.6325 48.3801 13.9025Z" fill="white"/>
</g>
<defs>
<clipPath id="clip0_70_10239">
<rect width="80" height="80" fill="white"/>
</clipPath>
</defs>
</svg>
