<svg width="79" height="79" viewBox="0 0 79 79" fill="none" xmlns="http://www.w3.org/2000/svg">
<path d="M39.2 78.4C17.5493 78.4 0 60.8507 0 39.2C0 17.5493 17.5493 0 39.2 0C60.8507 0 78.4 17.5493 78.4 39.2C78.4 60.8507 60.8507 78.4 39.2 78.4ZM56.6686 22.7653L50.7886 25.7641L22.3733 40.2364C21.9685 37.1263 22.4356 33.9648 23.7229 31.105C25.0099 28.2448 27.0662 25.7985 29.6623 24.039C32.2587 22.2795 35.2928 21.2759 38.4259 21.1401C41.5593 21.0044 44.6688 21.7418 47.4075 23.2701L50.7738 21.5552L51.2761 21.2979C48.0824 18.9804 44.2926 17.6252 40.3535 17.3922C36.4145 17.159 32.4912 18.0582 29.0468 19.983C25.6022 21.9079 22.7806 24.7782 20.9147 28.2548C19.049 31.7316 18.217 35.6698 18.5171 39.6044C18.5733 40.3442 18.4092 41.0844 18.0456 41.7314C17.6819 42.3784 17.135 42.9033 16.4737 43.24L14.6975 44.1464V48.3704L19.9258 45.7047L21.6189 44.84L23.2873 43.9898L53.241 28.7263L56.6073 27.0136L63.5653 23.4686V19.2473L56.6686 22.7653ZM63.5678 27.6948L24.9925 47.3341L21.6262 49.049L14.6999 52.5842V56.8058L21.5796 53.3023L27.4621 50.3035L55.9064 35.8092C56.3176 38.9241 55.8536 42.0919 54.5665 44.9578C53.2795 47.824 51.2201 50.2752 48.6189 52.0376C46.0182 53.7998 42.9779 54.8034 39.8388 54.9355C36.6999 55.0681 33.5857 54.3244 30.8456 52.7876L30.6373 52.8979L26.9867 54.76C30.1809 57.0788 33.9716 58.4347 37.9118 58.6679C41.8519 58.9013 45.7765 58.0017 49.2218 56.0756C52.6669 54.1501 55.4887 51.2781 57.3542 47.7998C59.2194 44.3212 60.0502 40.3816 59.7481 36.4463C59.6926 35.7069 59.8567 34.9678 60.2199 34.3215C60.5828 33.6749 61.1287 33.1501 61.7891 32.8128L63.5678 31.9064V27.6948Z" fill="black"/>
</svg>
